<?xml version="1.0" encoding="UTF-8"?><svg id="Layer_2" xmlns="http://www.w3.org/2000/svg" viewBox="0 0 477.29 132.5"><g id="Layer_2-2"><path d="M337.46,65.33h-37.02c-1.17,0-2.35.84-2.51,2.01l-1.34,6.37c-.33,1.34.67,2.68,2.18,2.68h37.19c1.17,0,2.35-.84,2.51-2.18l1.17-6.37c.34-1.34-.67-2.51-2.18-2.51Z"/><path d="M472.47,51.26l-.11-.14c-5.36-8.21-12.96-11.08-17.14-12.75-5.36-2.01-9.88-2.51-17.76-2.68-3.69,0-7.37-.17-10.89-.17-5.36,0-13.23,0-20.6.84-4.36.5-8.38,1-13.23,2.18-4.02,1-8.04,2.51-11.89,4.36-.33.17-.67.34-1,.5-2.68,1.51-5.03,3.18-7.37,5.03-.17-.34-.5-.5-.67-.84-7.54-8.38-17.25-10.22-20.94-10.55-4.19-.5-8.54-1-12.73-1.34-3.68-.17-7.2-.34-10.89-.34s-8.71.17-11.73.34c-10.05.5-16.08.84-23.62,2.85-1,.34-2.35.67-3.85,1.17l5.19-18.93c1.34-5.03.34-10.22-2.85-14.24-3.18-4.19-7.87-6.53-13.07-6.53h-20.77c-7.37,0-13.9,5.03-15.91,12.23l-8.54,31.66c-4.02-3.02-8.04-4.69-10.72-5.53-5.36-2.01-9.88-2.51-17.76-2.68-3.68,0-7.37-.17-10.89-.17-5.36,0-13.23.17-20.6.84-4.36.5-8.38,1-13.23,2.18-3.35.84-6.87,2.01-10.05,3.52,2.68-3.35,4.52-7.2,5.7-11.22,2.01-7.87.67-15.75-3.85-21.61C146,3.52,138.97.17,131.09.17s-7.54.84-11.22,2.35c-2.35-1.51-5.03-2.35-7.87-2.35h-24.46c-5.7,0-11.06,3.35-13.57,8.71l-17.92,39.36c.84-10.05,1.68-20.27,2.51-30.49v-.67c0-2.35,0-8.38-3.69-12.23C52.2,1.84,48.18.17,43.99.17h-23.79C12.67.17,6.14,6.37,5.63,14.07c-.84,11.89-1.51,22.78-2.01,32.5v.34C1.95,72.03.78,90.12.11,95.14c0,1.68-.84,10.22,2.18,17.92.67,1.68,1.34,3.02,1.68,3.35,1.84,3.35,4.19,6.2,7.04,8.54,1.34,1.17,4.52,3.35,8.88,5.03,3.35,1.17,6.2,1.68,8.21,1.84,3.35.33,6.87.5,10.72.5s2.18,0,3.18,0h.5c2.01,0,3.85-.34,5.53-.5,2.18-.17,4.69-.67,8.04-1.51,4.19-1.34,7.54-3.02,9.05-3.85,3.18-1.84,6.03-4.02,8.71-6.37l2.68-2.68c.34-.34.5-.67.84-1,.5-.67,1.17-1.34,1.68-2.01,0,.5-.17,1.17-.34,1.68v3.52c.5,3.35,2.18,5.53,3.02,6.53,3.18,4.02,7.87,6.37,12.9,6.37h20.27c5.86,0,11.06-3.02,14.07-7.87,1,.84,1.68,1.34,2.18,1.68,7.04,5.19,14.41,6.2,19.26,6.2l33.17-.34c2.18,0,4.36-.5,6.53-1.34,2.01.84,4.35,1.34,6.7,1.34h20.1c2.01,0,4.02-.33,5.86-1.17,2.18,1,4.52,1.51,6.87,1.51h20.27c5.53,0,10.72-2.85,13.74-7.54,7.87,6.7,16.75,7.54,20.44,7.54h66.33c5.53,0,10.55-2.68,13.57-7.04.5.33.84.67,1.17.84,7.04,5.19,14.41,6.2,19.26,6.2l33.17-.33c2.35,0,4.52-.5,6.53-1.34,2.01.84,4.36,1.34,6.7,1.34h20.1c7.71,0,14.41-5.53,16.08-13.07l8.88-41.88c1.34-4.19,3.69-15.24-3.35-25.96ZM114.18,20.77c2.01-7.37,9.55-13.4,16.92-13.4s11.73,6.03,9.72,13.4c-2.01,7.37-9.55,13.4-16.92,13.4s-11.73-6.03-9.72-13.4ZM74.14,89.61h0s-2.85,6.53-7.54,11.39c-.84,1-1.84,1.84-1.84,1.84-2.34,2.18-4.69,3.69-6.37,4.69-1,.5-3.18,1.68-6.2,2.68-2.34.67-4.19,1-5.53,1-1.68,0-3.35.34-5.03.34-3.52,0-7.71,0-12.06-.34-1.34,0-3.02-.33-5.03-1-2.51-.84-4.02-2.01-4.69-2.68-1.17-.84-2.51-2.35-3.85-4.69,0,0-.5-.84-.84-1.84-2.01-5.03-1.34-11.39-1.34-11.39.67-7.04,2.51-37.69,5.36-80.07,0-1.17,1.17-2.18,2.34-2.18h21.61c1.34,0,2.51,1.17,2.34,2.51l-6.37,77.22c0,1.34,1.01,2.51,2.35,2.51h6.87c.5,0,1.01-.34,1.17-.84L86.37,8.04c.17-.5.67-.84,1.17-.84h24.29c.67,0,1,.67.67,1.17-20.44,42.88-35.18,74.2-38.36,81.24ZM117.53,109.88h0c-.34,1.17-1.17,1.84-2.34,1.84h-20.27c-1.68,0-2.85-1.51-2.51-3.18l16.25-63.99c.34-1.17,1.34-1.84,2.35-1.84h20.27c1.68,0,2.85,1.51,2.51,3.18l-16.25,63.99ZM219.37,109.38c-.17,1.17-1.17,2.01-2.35,2.01h-20.1c-1.68,0-2.85-1.51-2.51-3.02l9.55-39.36c.33-1.51-.84-3.02-2.51-3.02h-36.52c-1.17,0-2.18.84-2.35,1.84l-4.86,17.76c-.5,1.68.84,3.18,2.34,3.18h26.13c1.51,0,2.68,1.34,2.51,2.85l-2.85,17.76c-.17,1.17-1.17,2.01-2.51,2.18l-32.66.33c-2.01,0-6.87,0-11.39-3.52-1.34-1.01-4.02-3.02-5.36-6.7-1.17-3.02-1.01-5.86-.84-7.2.5-5.03,1.34-10.72,2.51-16.75,1.84-8.54,2.18-10.22,3.35-13.07.26-.63,1.93-4.74,4.02-7.71,2.85-4.04,6.89-6.55,9.23-7.81.05-.02.1-.05.15-.07,2.35-1.01,5.53-2.35,9.72-3.52,4.02-1.01,7.2-1.51,11.22-1.84,2.68-.34,12.73-1.34,29.48-.67,7.04.17,9.88.5,13.57,1.84,3.18,1.17,7.54,2.85,10.39,7.04,4.19,6.37,2.09,13.16,1.76,14.5,0,0-.08.24-.08.4-3.02,14.24-6.03,28.31-9.05,42.55ZM252.53,109.88h0c-.34,1.17-1.34,1.84-2.51,1.84h-20.27c-1.68,0-2.85-1.51-2.51-3.18l26.63-99.16c.33-1.17,1.34-1.84,2.51-1.84h20.77c1.68,0,2.85,1.68,2.51,3.18l-27.14,99.16ZM365.12,71.55l-.02.14c-.84,4.02-2.01,7.54-3.18,10.22-.33.84-1.34,1.51-2.34,1.51h-64.32c-1.34,0-2.51,1.17-2.51,2.51v.84c0,1.34,1.17,2.51,2.51,2.51h59.46c1.51,0,2.85,1.51,2.35,3.02l-4.02,17.59c-.34,1.17-1.34,2.01-2.51,2.01h-65.66c-1.17,0-7.87.17-13.07-5.19-4.36-4.52-4.69-9.88-4.86-11.22,0-5.53.5-12.73,2.68-20.77,1.34-4.86,3.01-9.05,4.69-12.56,1.17-2.51,4.02-7.37,9.38-11.22,4.02-2.85,7.71-4.02,11.73-5.19,5.86-1.68,10.89-1.84,20.44-2.35,2.38-.14,4.9-.25,7.67-.3,7.04-.11,12.2.21,13.43.3.64.04,3.11.21,6.37.56,2.68.29,5.02.6,6.96.89,1.52.21,6.79,1.13,10.96,5.74,3.19,3.53,4.07,7.38,4.36,9.05v.33c.17,3.02.52,6.89-.48,11.58ZM462.48,66.58c-.02.08-.04.17-.06.25-3.01,14.24-6.03,28.31-9.05,42.55-.34,1.17-1.34,2.01-2.51,2.01h-20.1c-1.68,0-2.85-1.51-2.51-3.02l9.55-39.36c.33-1.51-.84-3.02-2.51-3.02h-36.52c-1.17,0-2.18.84-2.34,1.84l-4.86,17.76c-.5,1.68.84,3.18,2.35,3.18h26.13c1.51,0,2.68,1.34,2.51,2.85l-2.85,17.76c-.17,1.17-1.17,2.01-2.51,2.18l-32.66.33c-2.01,0-6.87,0-11.39-3.52-1.34-1.01-4.02-3.02-5.36-6.7-1.17-3.02-1-5.86-.84-7.2.5-5.03,1.34-10.72,2.51-16.75,1.84-8.54,2.18-10.22,3.35-13.07.26-.63,1.93-4.74,4.02-7.71,2.85-4.04,6.88-6.55,9.23-7.8.05-.03.1-.05.15-.08,2.35-1.01,5.53-2.35,9.72-3.52,4.02-1.01,7.2-1.51,11.22-1.84,2.68-.34,12.73-1.34,29.48-.67,7.04.17,9.88.5,13.57,1.84,2.06.75,7.31,2.69,10.39,7.04,4.15,5.85,2.29,13.17,1.95,14.43-.02.08-.03.15-.05.23Z"/></g></svg>